<svg width="29" height="29" viewBox="0 0 29 29" fill="none" xmlns="http://www.w3.org/2000/svg">
<path d="M24.1667 1.20833C24.1667 0.540989 24.7076 0 25.375 0C26.0424 0 26.5833 0.540989 26.5833 1.20833V2.41667H27.7917C28.459 2.41667 29 2.95766 29 3.625C29 4.29234 28.459 4.83333 27.7917 4.83333H26.5833V6.04167C26.5833 6.70901 26.0424 7.25 25.375 7.25C24.7076 7.25 24.1667 6.70901 24.1667 6.04167V4.83333H22.9583C22.291 4.83333 21.75 4.29234 21.75 3.625C21.75 2.95766 22.291 2.41667 22.9583 2.41667H24.1667V1.20833Z" fill="#0F0F0F"/>
<path d="M25.6089 9.75689C26.2228 9.49484 26.9422 9.77713 27.1475 10.4121C27.9669 12.9471 28.0082 15.6801 27.2507 18.2536C26.3789 21.215 24.5035 23.7805 21.9465 25.51C19.3894 27.2394 16.3102 28.0249 13.2372 27.7315C10.1641 27.4383 7.28899 26.0845 5.10526 23.9026C2.92152 21.7207 1.56536 18.8467 1.26951 15.7739C0.973672 12.7011 1.75661 9.62112 3.48395 7.06265C5.21128 4.50417 7.7753 2.62671 10.7359 1.75249C13.3088 0.992773 16.0418 1.03191 18.5775 1.84923C19.2126 2.05396 19.4955 2.77318 19.234 3.38714C18.9724 4.0011 18.2623 4.28354 17.6231 4.09174C15.6099 3.48761 13.4552 3.47799 11.4226 4.07815C9.00214 4.79286 6.9059 6.32781 5.4937 8.41952C4.08151 10.5112 3.44141 13.0293 3.68328 15.5415C3.92514 18.0536 5.03389 20.4034 6.81923 22.1872C8.60457 23.9711 10.9551 25.0778 13.4675 25.3176C15.98 25.5574 18.4974 24.9153 20.5879 23.5013C22.6785 22.0874 24.2117 19.9899 24.9244 17.5688C25.5229 15.5358 25.5115 13.3811 24.9057 11.3684C24.7134 10.7293 24.9952 10.0189 25.6089 9.75689Z" fill="#0F0F0F"/>
<path d="M9.31693 11.0499L8.8141 11.3013C8.09549 11.6606 7.25 11.1381 7.25 10.3347C7.25 9.92529 7.48129 9.55107 7.84744 9.368L9.41154 8.58594C9.57932 8.50206 9.76432 8.45837 9.95192 8.45837H10.875C11.5424 8.45837 12.0833 8.99937 12.0833 9.66671V19.3334C12.0833 20.0007 11.5424 20.5417 10.875 20.5417C10.2077 20.5417 9.66667 20.0007 9.66667 19.3334V11.2661C9.66667 11.0864 9.47761 10.9696 9.31693 11.0499Z" fill="#0F0F0F"/>
<path d="M17.5208 10.875H18.4388C18.9329 10.875 19.3333 11.2755 19.3333 11.7696C19.3333 11.9727 19.2642 12.1698 19.1373 12.3284L14.7647 17.7941C14.5934 18.0083 14.5 18.2745 14.5 18.5489V19.3334C14.5 20.0007 15.041 20.5417 15.7083 20.5417H20.5417C21.209 20.5417 21.75 20.0007 21.75 19.3334C21.75 18.666 21.209 18.125 20.5417 18.125H18.0149C17.8139 18.125 17.7008 17.8938 17.8242 17.735L21.2409 13.3421C21.5709 12.9178 21.75 12.3957 21.75 11.8584V10.875C21.75 9.54035 20.6681 8.45837 19.3333 8.45837H16.9167C15.5819 8.45837 14.5 9.54035 14.5 10.875C14.5 11.5424 15.041 12.0834 15.7083 12.0834H16.3125C16.6461 12.0834 16.9167 11.8129 16.9167 11.4792C16.9167 11.1455 17.1872 10.875 17.5208 10.875Z" fill="#0F0F0F"/>
</svg>
