<svg width="30" height="30" viewBox="0 0 30 30" fill="none" xmlns="http://www.w3.org/2000/svg">
<g clip-path="url(#clip0_12_276)">
<path fill-rule="evenodd" clip-rule="evenodd" d="M15 30C12.0333 30 9.13314 29.1203 6.6664 27.4721C4.19967 25.8238 2.27712 23.4811 1.14181 20.7403C0.00649221 17.9994 -0.290548 14.9834 0.28823 12.0736C0.867008 9.16393 2.29559 6.49119 4.39338 4.3934C6.49117 2.29562 9.16395 0.867006 12.0737 0.288228C14.9834 -0.290551 17.9994 0.00649929 20.7403 1.14181C23.4812 2.27713 25.8238 4.19972 27.4721 6.66646C29.1203 9.1332 30 12.0333 30 15C30 18.9783 28.4196 22.7936 25.6066 25.6066C22.7936 28.4197 18.9782 30 15 30ZM15 2.50001C12.5277 2.50001 10.1109 3.23312 8.05534 4.60664C5.99972 5.98015 4.39762 7.93239 3.45153 10.2165C2.50543 12.5005 2.25785 15.0139 2.74016 17.4386C3.22248 19.8634 4.41303 22.0907 6.16119 23.8388C7.90934 25.587 10.1366 26.7775 12.5613 27.2598C14.9861 27.7421 17.4995 27.4946 19.7835 26.5485C22.0676 25.6024 24.0198 24.0002 25.3934 21.9446C26.7669 19.889 27.5 17.4723 27.5 15C27.5 11.6848 26.183 8.50538 23.8388 6.16117C21.4946 3.81697 18.3152 2.50001 15 2.50001ZM20.8825 20.8825C20.7721 20.9929 20.6411 21.0805 20.4968 21.1402C20.3526 21.2 20.198 21.2307 20.0419 21.2307C19.8858 21.2307 19.7312 21.2 19.5869 21.1402C19.4427 21.0805 19.3117 20.9929 19.2013 20.8825L14.9812 16.6625L10.7613 20.8825C10.6523 20.998 10.5213 21.0904 10.376 21.1544C10.2308 21.2183 10.0741 21.2524 9.91538 21.2547C9.75666 21.257 9.59913 21.2274 9.45205 21.1677C9.30497 21.108 9.17134 21.0194 9.05913 20.9071C8.94693 20.7948 8.85842 20.6611 8.79882 20.514C8.73922 20.3669 8.70974 20.2093 8.71215 20.0506C8.71456 19.8919 8.74882 19.7352 8.81286 19.59C8.8769 19.4447 8.96944 19.3138 9.085 19.205L13.305 14.985L9.085 10.765C8.96944 10.6562 8.8769 10.5253 8.81286 10.38C8.74882 10.2348 8.71456 10.0782 8.71215 9.91943C8.70974 9.76071 8.73922 9.60313 8.79882 9.456C8.85842 9.30888 8.94693 9.17522 9.05913 9.06294C9.17134 8.95065 9.30497 8.86202 9.45205 8.80231C9.59913 8.74259 9.75666 8.71301 9.91538 8.7153C10.0741 8.7176 10.2308 8.75172 10.376 8.81565C10.5213 8.87958 10.6523 8.97203 10.7613 9.0875L14.9812 13.3075L19.2013 9.0875C19.311 8.97527 19.4418 8.88592 19.5863 8.82461C19.7307 8.76331 19.8859 8.73128 20.0428 8.73038C20.1997 8.72948 20.3552 8.75972 20.5004 8.81936C20.6456 8.879 20.7775 8.96685 20.8884 9.07782C20.9994 9.18878 21.0873 9.32065 21.1469 9.46581C21.2066 9.61096 21.2368 9.76651 21.2359 9.92344C21.235 10.0804 21.203 10.2355 21.1417 10.38C21.0804 10.5245 20.991 10.6553 20.8787 10.765L16.6588 14.985L20.8787 19.205C21.1014 19.4271 21.2268 19.7285 21.2275 20.043C21.2282 20.3575 21.1041 20.6594 20.8825 20.8825Z" fill="black"/>
</g>
<defs>
<clipPath id="clip0_12_276">
<rect width="30" height="30" fill="white"/>
</clipPath>
</defs>
</svg>
