<svg width="46" height="37" viewBox="0 0 46 37" fill="none" xmlns="http://www.w3.org/2000/svg">
<path d="M14.875 6.87521C16.2803 6.42822 17.8202 6.16663 19.5 6.16663C25.9471 6.16663 30.3349 10.0201 32.9512 13.4191C34.2615 15.1214 34.9167 15.9726 34.9167 18.5C34.9167 21.0274 34.2615 21.8785 32.9512 23.5808C30.3349 26.9797 25.9471 30.8333 19.5 30.8333C13.053 30.8333 8.66515 26.9797 6.04883 23.5808C4.73852 21.8785 4.08337 21.0274 4.08337 18.5C4.08337 15.9726 4.73852 15.1214 6.04883 13.4191C6.79073 12.4553 7.67504 11.4549 8.70837 10.5162" stroke="black" stroke-width="2.75" stroke-linecap="round"/>
<path d="M24.125 18.5C24.125 21.0544 22.0544 23.125 19.5 23.125C16.9456 23.125 14.875 21.0544 14.875 18.5C14.875 15.9456 16.9456 13.875 19.5 13.875C22.0544 13.875 24.125 15.9456 24.125 18.5Z" stroke="black" stroke-width="2.75"/>
</svg>
