<svg width="102" height="102" viewBox="0 0 102 102" fill="none" xmlns="http://www.w3.org/2000/svg">
<path d="M76.8984 79.6875C85.8633 71.3203 89.8477 57.375 87.457 44.0273H51.7969V58.7695H72.1172C71.3203 63.5508 68.5312 67.5352 64.5469 70.125L76.8984 79.6875Z" fill="#4285F4"/>
<path d="M17.9297 67.9336C20.5504 73.0961 24.3089 77.5964 28.9218 81.0951C33.5347 84.5938 38.8816 86.9998 44.5595 88.1315C50.2375 89.2633 56.0983 89.0913 61.7001 87.6286C67.3019 86.1659 72.4986 83.4507 76.8984 79.6875L64.5469 70.125C53.9883 77.0977 36.457 74.5078 30.4805 58.1719L17.9297 67.9336Z" fill="#34A853"/>
<path d="M30.4805 58.1719C28.8867 53.1914 28.8867 48.6094 30.4805 43.6289L17.9297 33.8672C13.3477 43.0312 11.9532 55.9805 17.9297 67.9336L30.4805 58.1719Z" fill="#FBBC02"/>
<path d="M30.4805 43.629C34.8633 29.8829 53.5898 21.9141 66.1406 33.668L77.0977 22.9102C61.5586 7.96881 31.2773 8.56646 17.9297 33.8672L30.4805 43.629Z" fill="#EA4335"/>
</svg>
