<svg width="41px" height="41px" viewBox="0 0 73 60" fill="none" xmlns="http://www.w3.org/2000/svg">
<path fill-rule="evenodd" clip-rule="evenodd" d="M13.6875 32.2755V28.7108C13.6875 22.2431 18.9761 17 25.5 17C32.0238 17 37.3125 22.2431 37.3125 28.7108V32.2755C39.2634 32.42 40.5337 32.7845 41.4623 33.7052C43 35.2297 43 37.6833 43 42.5904C43 47.4975 43 49.951 41.4623 51.4755C39.9245 53 37.4497 53 32.5 53H18.5C13.5502 53 11.0754 53 9.53769 51.4755C8 49.951 8 47.4975 8 42.5904C8 37.6833 8 35.2297 9.53769 33.7052C10.4663 32.7845 11.7367 32.42 13.6875 32.2755ZM16.3125 28.7108C16.3125 23.6804 20.4259 19.6024 25.5 19.6024C30.5741 19.6024 34.6875 23.6804 34.6875 28.7108V32.187C34.0173 32.1807 33.2901 32.1807 32.5 32.1807H18.5C17.7099 32.1807 16.9828 32.1807 16.3125 32.187V28.7108ZM29 42.5904C29 44.5068 27.4331 46.0602 25.5 46.0602C23.5669 46.0602 22 44.5068 22 42.5904C22 40.6739 23.5669 39.1205 25.5 39.1205C27.4331 39.1205 29 40.6739 29 42.5904Z" fill="#062726"/>
</svg>
