<svg width="41" height="41" viewBox="0 0 41 41" fill="none" xmlns="http://www.w3.org/2000/svg">
<path d="M30 12C24.2134 22.6717 16.7866 22.6617 11 12" stroke="black" stroke-width="1.6" stroke-linecap="round" stroke-linejoin="round"/>
<path d="M4.08398 12.1196V28.5196C4.08398 30.2595 4.77513 31.9279 6.00536 33.1582C7.23561 34.3884 8.90417 35.0796 10.644 35.0796H30.3239C32.0638 35.0796 33.7323 34.3884 34.9625 33.1582C36.1928 31.9279 36.8839 30.2595 36.8839 28.5196V12.1196C36.8839 10.3798 36.1928 8.71115 34.9625 7.48091C33.7323 6.25068 32.0638 5.55963 30.3239 5.55963H10.644C8.90417 5.55963 7.23561 6.25068 6.00536 7.48091C4.77513 8.71115 4.08398 10.3798 4.08398 12.1196Z" stroke="black" stroke-width="1.6" stroke-linecap="round" stroke-linejoin="round"/>
</svg>
