<svg width="26" height="26" viewBox="0 0 26 26" fill="none" xmlns="http://www.w3.org/2000/svg">
<path opacity="0.5" d="M13 23.8333C18.983 23.8333 23.8333 18.983 23.8333 13C23.8333 7.01687 18.983 2.16663 13 2.16663C7.01692 2.16663 2.16667 7.01687 2.16667 13C2.16667 18.983 7.01692 23.8333 13 23.8333Z" fill="black"/>
<path d="M5.68753 15.1602C5.69133 14.7115 6.05817 14.3507 6.50689 14.3545C7.42847 14.3624 8.21487 14.3909 8.86747 14.5188C9.54277 14.651 10.1313 14.8997 10.6146 15.3829C11.0979 15.8663 11.3465 16.4548 11.4788 17.1301C11.6066 17.7827 11.6352 18.5691 11.643 19.4907C11.6468 19.9394 11.2861 20.3062 10.8374 20.31C10.3887 20.3138 10.0218 19.9532 10.018 19.5045C10.0102 18.5772 9.97955 17.9296 9.88411 17.4425C9.79311 16.9779 9.65435 16.7208 9.46556 16.532C9.27675 16.3432 9.01964 16.2044 8.5551 16.1134C8.06789 16.018 7.42031 15.9874 6.49311 15.9795C6.04439 15.9757 5.68373 15.6089 5.68753 15.1602Z" fill="black"/>
<path d="M10.8374 5.68863C11.2861 5.69244 11.6468 6.05928 11.643 6.508C11.6352 7.42957 11.6066 8.21597 11.4788 8.86858C11.3465 9.54387 11.0979 10.1324 10.6146 10.6157C10.1313 11.099 9.54277 11.3476 8.86747 11.4799C8.21487 11.6077 7.42847 11.6362 6.50689 11.644C6.05817 11.6479 5.69133 11.2872 5.68753 10.8385C5.68373 10.3898 6.04439 10.0229 6.49311 10.0191C7.42031 10.0113 8.06789 9.98065 8.5551 9.88521C9.01964 9.79422 9.27675 9.65546 9.46556 9.46666C9.65435 9.27786 9.79311 9.02073 9.88411 8.55621C9.97955 8.06899 10.0102 7.42141 10.018 6.49422C10.0218 6.0455 10.3887 5.68483 10.8374 5.68863Z" fill="black"/>
<path d="M15.1596 5.68863C15.6083 5.68483 15.9752 6.0455 15.979 6.49422C15.9869 7.42141 16.0174 8.06899 16.1129 8.55621C16.2039 9.02073 16.3426 9.27786 16.5315 9.46666C16.7203 9.65546 16.9774 9.79422 17.4419 9.88521C17.9291 9.98065 18.5767 10.0113 19.5039 10.0191C19.9526 10.0229 20.3133 10.3898 20.3095 10.8385C20.3057 11.2872 19.9389 11.6479 19.4901 11.644C18.5686 11.6362 17.7822 11.6077 17.1296 11.4799C16.4542 11.3476 15.8657 11.099 15.3824 10.6157C14.8991 10.1324 14.6505 9.54387 14.5182 8.86858C14.3904 8.21597 14.3619 7.42957 14.3541 6.508C14.3502 6.05928 14.7109 5.69244 15.1596 5.68863Z" fill="black"/>
<path d="M20.3095 15.1602C20.3133 15.6089 19.9526 15.9757 19.5039 15.9795C18.5767 15.9874 17.9291 16.018 17.4419 16.1134C16.9774 16.2044 16.7203 16.3432 16.5315 16.532C16.3426 16.7208 16.2039 16.9779 16.1129 17.4425C16.0174 17.9296 15.9869 18.5772 15.979 19.5045C15.9752 19.9532 15.6083 20.3138 15.1596 20.31C14.7109 20.3062 14.3502 19.9394 14.3541 19.4907C14.3619 18.5691 14.3904 17.7827 14.5182 17.1301C14.6505 16.4548 14.8991 15.8663 15.3824 15.3829C15.8657 14.8997 16.4542 14.651 17.1296 14.5188C17.7822 14.3909 18.5686 14.3624 19.4901 14.3545C19.9389 14.3507 20.3057 14.7115 20.3095 15.1602Z" fill="black"/>
</svg>
