<svg width="8" height="3" viewBox="0 0 8 3" fill="none" xmlns="http://www.w3.org/2000/svg">
<path id="Vector" d="M1.08426 0.998664C3.03338 0.760648 5.00493 0.773112 6.95088 1.03575C7.04401 1.00352 7.14349 0.994034 7.24104 1.00806C7.33859 1.02208 7.43137 1.05922 7.51165 1.11639C7.59193 1.17355 7.65737 1.24906 7.70253 1.33666C7.74769 1.42426 7.77128 1.5214 7.77128 1.61995C7.77128 1.7185 7.74769 1.81564 7.70253 1.90323C7.65737 1.99083 7.59193 2.06634 7.51165 2.12351C7.43137 2.18067 7.33859 2.21781 7.24104 2.23184C7.14349 2.24586 7.04401 2.23637 6.95088 2.20414C5.02187 2.33706 3.08559 2.32466 1.15844 2.16705C1.0676 2.20447 0.969131 2.21968 0.871231 2.21146C0.77333 2.20324 0.678816 2.17182 0.59549 2.11977C0.512164 2.06773 0.442455 1.99655 0.392118 1.91218C0.34178 1.82781 0.312278 1.73267 0.306053 1.63462C0.299827 1.53658 0.317048 1.43845 0.356311 1.3484C0.395574 1.25834 0.455725 1.17893 0.531799 1.11676C0.607874 1.0546 0.697656 1.01147 0.79373 0.990929C0.889805 0.970391 0.989419 0.973034 1.08426 0.998664Z" fill="#EF9273"/>
</svg>
